<svg width="24" height="24" viewBox="0 0 24 24" fill="none" xmlns="http://www.w3.org/2000/svg">
<path d="M12 2.71429C12.8476 2.71429 13.6762 2.96564 14.381 3.43656C15.0858 3.90748 15.6351 4.57682 15.9595 5.35993C16.2839 6.14304 16.3687 7.00475 16.2034 7.8361C16.038 8.66745 15.6298 9.43109 15.0305 10.0305C14.4311 10.6298 13.6674 11.038 12.8361 11.2034C12.0048 11.3687 11.143 11.2839 10.3599 10.9595C9.57682 10.6351 8.90748 10.0858 8.43656 9.38101C7.96564 8.67623 7.71429 7.84763 7.71429 7C7.71429 5.86336 8.16582 4.77327 8.96954 3.96954C9.77327 3.16581 10.8634 2.71429 12 2.71429ZM12 1C10.8133 1 9.65328 1.35189 8.66658 2.01118C7.67989 2.67047 6.91085 3.60754 6.45673 4.7039C6.0026 5.80026 5.88378 7.00665 6.11529 8.17054C6.3468 9.33443 6.91825 10.4035 7.75736 11.2426C8.59648 12.0818 9.66557 12.6532 10.8295 12.8847C11.9933 13.1162 13.1997 12.9974 14.2961 12.5433C15.3925 12.0891 16.3295 11.3201 16.9888 10.3334C17.6481 9.34672 18 8.18669 18 7C18 5.4087 17.3679 3.88258 16.2426 2.75736C15.1174 1.63214 13.5913 1 12 1Z" fill="white"/>
<path d="M21.5 23.5H20V19.75C20 19.2575 19.903 18.7699 19.7145 18.3149C19.5261 17.86 19.2499 17.4466 18.9016 17.0983C18.5534 16.7501 18.14 16.4739 17.6851 16.2855C17.2301 16.097 16.7425 16 16.25 16H7.75C6.75544 16 5.80161 16.3951 5.09835 17.0983C4.39509 17.8016 4 18.7554 4 19.75V23.5H2.5V19.75C2.5 18.3576 3.05312 17.0223 4.03769 16.0377C5.02226 15.0531 6.35761 14.5 7.75 14.5H16.25C17.6424 14.5 18.9777 15.0531 19.9623 16.0377C20.9469 17.0223 21.5 18.3576 21.5 19.75V23.5Z" fill="white"/>
</svg>
